G04 #@! TF.FileFunction,Legend,Bot*
%FSLAX46Y46*%
G04 Gerber Fmt 4.6, Leading zero omitted, Abs format (unit mm)*
G04 Created by KiCad (PCBNEW 4.0.1-stable) date Tuesday, April 26, 2016 'AMt' 05:14:25 AM*
%MOMM*%
G01*
G04 APERTURE LIST*
%ADD10C,0.100000*%
%ADD11C,0.125000*%
%ADD12C,0.375000*%
G04 APERTURE END LIST*
D10*
D11*
X132293990Y-86778777D02*
X132317449Y-86692440D01*
X132290988Y-86542374D01*
X132241068Y-86478645D01*
X132197763Y-86452434D01*
X132117769Y-86437527D01*
X131897631Y-86505355D01*
X131830867Y-86565481D01*
X131800793Y-86614302D01*
X131777333Y-86700640D01*
X131803794Y-86850706D01*
X131853715Y-86914434D01*
X132390216Y-87105121D02*
X131876561Y-87263387D01*
X132023319Y-87218168D02*
X131956555Y-87278294D01*
X131926481Y-87327116D01*
X131903021Y-87413453D01*
X131916252Y-87488487D01*
X132496058Y-87705384D02*
X132446139Y-87641656D01*
X132402833Y-87615444D01*
X132322839Y-87600538D01*
X132102701Y-87668366D01*
X132035938Y-87728492D01*
X132005863Y-87777313D01*
X131982403Y-87863651D01*
X132002249Y-87976201D01*
X132052170Y-88039928D01*
X132095474Y-88066140D01*
X132175468Y-88081048D01*
X132395606Y-88013220D01*
X132462370Y-87953093D01*
X132492445Y-87904272D01*
X132515904Y-87817934D01*
X132496058Y-87705384D01*
X132558597Y-88279437D02*
X132608516Y-88343165D01*
X132634977Y-88493231D01*
X132611518Y-88579569D01*
X132544753Y-88639695D01*
X132508064Y-88651000D01*
X132428069Y-88636092D01*
X132378149Y-88572364D01*
X132358304Y-88459815D01*
X132308384Y-88396086D01*
X132228389Y-88381180D01*
X132191700Y-88392484D01*
X132124936Y-88452610D01*
X132101477Y-88538949D01*
X132121322Y-88651497D01*
X132171243Y-88715226D01*
X132671054Y-88917217D02*
X132720974Y-88980945D01*
X132747435Y-89131011D01*
X132723976Y-89217349D01*
X132657211Y-89277475D01*
X132620522Y-89288780D01*
X132540527Y-89273872D01*
X132490607Y-89210144D01*
X132470762Y-89097595D01*
X132420842Y-89033866D01*
X132340847Y-89018960D01*
X132304158Y-89030265D01*
X132237394Y-89090390D01*
X132213934Y-89176729D01*
X132233780Y-89289278D01*
X132283701Y-89353006D01*
X132849664Y-89930162D02*
X132873123Y-89843825D01*
X132846662Y-89693759D01*
X132796743Y-89630030D01*
X132753437Y-89603819D01*
X132673443Y-89588912D01*
X132453305Y-89656740D01*
X132386542Y-89716866D01*
X132356467Y-89765687D01*
X132333007Y-89852025D01*
X132359468Y-90002091D01*
X132409389Y-90065819D01*
X132965735Y-90369055D02*
X132915816Y-90305326D01*
X132872510Y-90279115D01*
X132792516Y-90264208D01*
X132572378Y-90332036D01*
X132505615Y-90392162D01*
X132475540Y-90440983D01*
X132452080Y-90527322D01*
X132471926Y-90639871D01*
X132521847Y-90703599D01*
X132565151Y-90729810D01*
X132645145Y-90744718D01*
X132865283Y-90676890D01*
X132932047Y-90616763D01*
X132962122Y-90567942D01*
X132985581Y-90481605D01*
X132965735Y-90369055D01*
X132557923Y-91127586D02*
X133071578Y-90969319D01*
X132631303Y-91104976D02*
X132601229Y-91153797D01*
X132577769Y-91240135D01*
X132597614Y-91352685D01*
X132647535Y-91416413D01*
X132727529Y-91431319D01*
X133131114Y-91306967D01*
X132683611Y-91840399D02*
X133197266Y-91682133D01*
X132756991Y-91817790D02*
X132726917Y-91866611D01*
X132703457Y-91952949D01*
X132723303Y-92065499D01*
X132773223Y-92129226D01*
X132853217Y-92144133D01*
X133256803Y-92019781D01*
X133339187Y-92706383D02*
X133362646Y-92620046D01*
X133336185Y-92469980D01*
X133286265Y-92406251D01*
X133206270Y-92391345D01*
X132912754Y-92481782D01*
X132845990Y-92541908D01*
X132822530Y-92628247D01*
X132848991Y-92778313D01*
X132898911Y-92842040D01*
X132978905Y-92856947D01*
X133052285Y-92834337D01*
X133059512Y-92436563D01*
X133464875Y-93419196D02*
X133488334Y-93332859D01*
X133461873Y-93182793D01*
X133411953Y-93119064D01*
X133368648Y-93092853D01*
X133288654Y-93077946D01*
X133068516Y-93145774D01*
X133001752Y-93205900D01*
X132971678Y-93254721D01*
X132948218Y-93341059D01*
X132974679Y-93491125D01*
X133024600Y-93554853D01*
X133027600Y-93791256D02*
X133080522Y-94091388D01*
X132790619Y-93982939D02*
X133451032Y-93779454D01*
X133531026Y-93794360D01*
X133580946Y-93858089D01*
X133594176Y-93933122D01*
X133212825Y-94841718D02*
X133265746Y-95141850D01*
X133746325Y-94796001D02*
X133085912Y-94999486D01*
X133019148Y-95059612D01*
X132995690Y-95145950D01*
X133008920Y-95220983D01*
X133845553Y-95358749D02*
X133795633Y-95295020D01*
X133752328Y-95268809D01*
X133672334Y-95253902D01*
X133452196Y-95321730D01*
X133385432Y-95381856D01*
X133355358Y-95430677D01*
X133331898Y-95517016D01*
X133351744Y-95629565D01*
X133401664Y-95693293D01*
X133444969Y-95719504D01*
X133524963Y-95734412D01*
X133745101Y-95666584D01*
X133811864Y-95606457D01*
X133841939Y-95557636D01*
X133865398Y-95471299D01*
X133845553Y-95358749D01*
X133951396Y-95959013D02*
X133437741Y-96117280D01*
X133584499Y-96072060D02*
X133517736Y-96132186D01*
X133487662Y-96181008D01*
X133464201Y-96267346D01*
X133477432Y-96342379D01*
X134099931Y-97020780D02*
X134156466Y-97122025D01*
X134189542Y-97309607D01*
X134166083Y-97395944D01*
X134136008Y-97444766D01*
X134069244Y-97504892D01*
X133995864Y-97527501D01*
X133915871Y-97512594D01*
X133872566Y-97486382D01*
X133822645Y-97422654D01*
X133759495Y-97283893D01*
X133709576Y-97220164D01*
X133666271Y-97193953D01*
X133586276Y-97179046D01*
X133512897Y-97201655D01*
X133446133Y-97261781D01*
X133416059Y-97310602D01*
X133392600Y-97396940D01*
X133425676Y-97584522D01*
X133482210Y-97685767D01*
X134298386Y-98146274D02*
X134321845Y-98059937D01*
X134295385Y-97909871D01*
X134245465Y-97846142D01*
X134202159Y-97819931D01*
X134122166Y-97805024D01*
X133902027Y-97872852D01*
X133835264Y-97932978D01*
X133805190Y-97981799D01*
X133781730Y-98068137D01*
X133808190Y-98218203D01*
X133858111Y-98281931D01*
X134394612Y-98472618D02*
X133624131Y-98710017D01*
X134454148Y-98810266D02*
X134050563Y-98934618D01*
X133970569Y-98919711D01*
X133920648Y-98855984D01*
X133900803Y-98743434D01*
X133924263Y-98657096D01*
X133954337Y-98608274D01*
X134520300Y-99185431D02*
X134006645Y-99343698D01*
X133749819Y-99422831D02*
X133779893Y-99374010D01*
X133823198Y-99400221D01*
X133793123Y-99449042D01*
X133749819Y-99422831D01*
X133823198Y-99400221D01*
X134586452Y-99560596D02*
X134072797Y-99718862D01*
X133815971Y-99797995D02*
X133846045Y-99749174D01*
X133889349Y-99775385D01*
X133859275Y-99824207D01*
X133815971Y-99797995D01*
X133889349Y-99775385D01*
X134119103Y-99981477D02*
X134172024Y-100281609D01*
X133882122Y-100173160D02*
X134542535Y-99969675D01*
X134622529Y-99984581D01*
X134672449Y-100048310D01*
X134685679Y-100123342D01*
X135134346Y-101132189D02*
X135101270Y-100944606D01*
X134000582Y-101283747D01*
X134033658Y-101471331D01*
X134887136Y-101485241D02*
X134937056Y-101548969D01*
X134963516Y-101699035D01*
X134940057Y-101785373D01*
X134873293Y-101845499D01*
X134836604Y-101856804D01*
X134756609Y-101841896D01*
X134706689Y-101778168D01*
X134686844Y-101665619D01*
X134636924Y-101601890D01*
X134556929Y-101586984D01*
X134520240Y-101598289D01*
X134453476Y-101658414D01*
X134430016Y-101744753D01*
X134449862Y-101857302D01*
X134499782Y-101921030D01*
X134509398Y-102194950D02*
X134562319Y-102495082D01*
X134272417Y-102386632D02*
X134932829Y-102183147D01*
X135012824Y-102198054D01*
X135062744Y-102261783D01*
X135075974Y-102336815D01*
X135181817Y-102937079D02*
X134778231Y-103061431D01*
X134698237Y-103046524D01*
X134648317Y-102982797D01*
X134621856Y-102832731D01*
X134645316Y-102746393D01*
X135145128Y-102948384D02*
X135168587Y-102862047D01*
X135135511Y-102674464D01*
X135085591Y-102610736D01*
X135005596Y-102595829D01*
X134932218Y-102618438D01*
X134865453Y-102678564D01*
X134841994Y-102764902D01*
X134875070Y-102952484D01*
X134851611Y-103038821D01*
X135270816Y-103661198D02*
X135294275Y-103574860D01*
X135267814Y-103424794D01*
X135217895Y-103361066D01*
X135174589Y-103334854D01*
X135094595Y-103319948D01*
X134874457Y-103387776D01*
X134807694Y-103447901D01*
X134777619Y-103496722D01*
X134754159Y-103583061D01*
X134780620Y-103733127D01*
X134830541Y-103796854D01*
X135367042Y-103987541D02*
X134596560Y-104224940D01*
X135086755Y-104153012D02*
X135419963Y-104287673D01*
X134906308Y-104445940D02*
X135146904Y-104055369D01*
X135723096Y-104471156D02*
X135756172Y-104658738D01*
X134655484Y-104997880D01*
X134622408Y-104810298D01*
D12*
X129054292Y-83861148D02*
X126099869Y-84382093D01*
X129302361Y-85268016D02*
X126347937Y-85788960D01*
X129600043Y-86956257D01*
X126645620Y-87477202D01*
X126819268Y-88462009D02*
X127116951Y-90150251D01*
X129922533Y-88785186D02*
X126968109Y-89306130D01*
X130542705Y-92302356D02*
X128962188Y-91565617D01*
X130245022Y-90614115D02*
X127290599Y-91135059D01*
X127489054Y-92260554D01*
X127679354Y-92517120D01*
X127844848Y-92633000D01*
X128151028Y-92724073D01*
X128573089Y-92649652D01*
X128829656Y-92459352D01*
X128945535Y-92293858D01*
X129036608Y-91987678D01*
X128838153Y-90862184D01*
X127910771Y-94652229D02*
X128009998Y-95214977D01*
X128200299Y-95471543D01*
X128531286Y-95703303D01*
X129118841Y-95744763D01*
X130103648Y-95571115D01*
X130641588Y-95331200D01*
X130873349Y-95000213D01*
X130964422Y-94694032D01*
X130865194Y-94131285D01*
X130674894Y-93874718D01*
X130343906Y-93642959D01*
X129756352Y-93601499D01*
X128771544Y-93775148D01*
X128233603Y-94015062D01*
X128001844Y-94346049D01*
X127910771Y-94652229D01*
X131311718Y-96663648D02*
X128357295Y-97184592D01*
X128555750Y-98310087D01*
X128746050Y-98566653D01*
X128911544Y-98682533D01*
X129217724Y-98773606D01*
X129639785Y-98699185D01*
X129896352Y-98508885D01*
X130012231Y-98343391D01*
X130103304Y-98037211D01*
X129904849Y-96911717D01*
X132130345Y-101306312D02*
X130549828Y-100569573D01*
X131832663Y-99618071D02*
X128878239Y-100139016D01*
X129076694Y-101264510D01*
X129266995Y-101521077D01*
X129432488Y-101636956D01*
X129738669Y-101728029D01*
X130160730Y-101653609D01*
X130417296Y-101463308D01*
X130533176Y-101297815D01*
X130624249Y-100991635D01*
X130425794Y-99866140D01*
X129498411Y-103656186D02*
X129597639Y-104218933D01*
X129787939Y-104475500D01*
X130118926Y-104707260D01*
X130706481Y-104748720D01*
X131691289Y-104575071D01*
X132229229Y-104335156D01*
X132460989Y-104004169D01*
X132552062Y-103697989D01*
X132452835Y-103135241D01*
X132262534Y-102878675D01*
X131931546Y-102646915D01*
X131343993Y-102605456D01*
X130359185Y-102779104D01*
X129821244Y-103019018D01*
X129589484Y-103350005D01*
X129498411Y-103656186D01*
X132733865Y-105551725D02*
X132948972Y-105948978D01*
X133073007Y-106652412D01*
X132981934Y-106958592D01*
X132866054Y-107124086D01*
X132609486Y-107314386D01*
X132328113Y-107364000D01*
X132021933Y-107272927D01*
X131856439Y-107157047D01*
X131666138Y-106900481D01*
X131426224Y-106362540D01*
X131235923Y-106105974D01*
X131070430Y-105990094D01*
X130764250Y-105899021D01*
X130482875Y-105948635D01*
X130226309Y-106138935D01*
X130110429Y-106304429D01*
X130019356Y-106610609D01*
X130143390Y-107314043D01*
X130358498Y-107711297D01*
X131847941Y-108754217D02*
X132021589Y-109739024D01*
X133643565Y-109888209D02*
X133395496Y-108481341D01*
X130441073Y-109002285D01*
X130689142Y-110409153D01*
M02*
