G04 #@! TF.FileFunction,Legend,Top*
%FSLAX46Y46*%
G04 Gerber Fmt 4.6, Leading zero omitted, Abs format (unit mm)*
G04 Created by KiCad (PCBNEW 4.0.1-stable) date Tuesday, April 26, 2016 'AMt' 05:14:25 AM*
%MOMM*%
G01*
G04 APERTURE LIST*
%ADD10C,0.100000*%
%ADD11C,0.150000*%
G04 APERTURE END LIST*
D10*
D11*
X137344389Y-98963479D02*
X137697947Y-98728097D01*
X137275268Y-98686251D01*
X137088269Y-98526752D02*
X137053635Y-98505942D01*
X137012088Y-98457408D01*
X136977528Y-98318795D01*
X136991426Y-98256437D01*
X137012237Y-98221803D01*
X137060770Y-98180255D01*
X137116216Y-98166431D01*
X137206296Y-98173419D01*
X137621914Y-98423146D01*
X137532057Y-98062750D01*
X137414403Y-97827070D02*
X137435213Y-97792435D01*
X137469849Y-97813246D01*
X137449037Y-97847880D01*
X137414403Y-97827070D01*
X137469849Y-97813246D01*
X136790903Y-97570280D02*
X136777078Y-97514835D01*
X136790977Y-97452477D01*
X136811787Y-97417843D01*
X136860321Y-97376297D01*
X136964300Y-97320925D01*
X137102913Y-97286365D01*
X137220717Y-97286440D01*
X137283074Y-97300338D01*
X137317708Y-97321148D01*
X137359256Y-97369682D01*
X137373080Y-97425127D01*
X137359181Y-97487485D01*
X137338370Y-97522119D01*
X137289837Y-97563667D01*
X137185858Y-97619037D01*
X137047244Y-97653598D01*
X136929441Y-97653524D01*
X136867083Y-97639624D01*
X136832449Y-97618814D01*
X136790903Y-97570280D01*
X136632073Y-96697051D02*
X136597439Y-96676241D01*
X136555893Y-96627707D01*
X136521332Y-96489094D01*
X136535231Y-96426736D01*
X136556041Y-96392102D01*
X136604574Y-96350554D01*
X136660020Y-96336730D01*
X136750100Y-96343717D01*
X137165718Y-96593445D01*
X137075862Y-96233049D01*
X136403827Y-96017806D02*
X136390003Y-95962361D01*
X136403901Y-95900003D01*
X136424712Y-95865369D01*
X136473245Y-95823822D01*
X136577224Y-95768451D01*
X136715838Y-95733891D01*
X136833641Y-95733966D01*
X136895999Y-95747864D01*
X136930633Y-95768674D01*
X136972181Y-95817208D01*
X136986005Y-95872653D01*
X136972106Y-95935011D01*
X136951295Y-95969645D01*
X136902762Y-96011193D01*
X136798783Y-96066563D01*
X136660169Y-96101124D01*
X136542366Y-96101050D01*
X136480008Y-96087150D01*
X136445374Y-96066340D01*
X136403827Y-96017806D01*
X136799379Y-95124139D02*
X136882324Y-95456812D01*
X136840852Y-95290476D02*
X136258674Y-95435629D01*
X136355666Y-95470338D01*
X136424936Y-95511959D01*
X136466482Y-95560493D01*
X136092785Y-94770283D02*
X136120433Y-94881174D01*
X136161979Y-94929707D01*
X136196614Y-94950518D01*
X136293607Y-94985227D01*
X136411409Y-94985301D01*
X136633191Y-94930005D01*
X136681725Y-94888458D01*
X136702535Y-94853823D01*
X136716435Y-94791466D01*
X136688786Y-94680575D01*
X136647239Y-94632042D01*
X136612605Y-94611231D01*
X136550247Y-94597332D01*
X136411633Y-94631892D01*
X136363100Y-94673440D01*
X136342288Y-94708074D01*
X136328390Y-94770432D01*
X136356039Y-94881323D01*
X136397585Y-94929856D01*
X136432220Y-94950667D01*
X136494578Y-94964565D01*
X145000000Y-115000000D02*
G75*
G03X145000000Y-115000000I-6000000J0D01*
G01*
X131000000Y-115000000D02*
G75*
G03X131000000Y-115000000I-6000000J0D01*
G01*
X142500000Y-78200000D02*
G75*
G03X142500000Y-78200000I-6000000J0D01*
G01*
X128500000Y-78200000D02*
G75*
G03X128500000Y-78200000I-6000000J0D01*
G01*
X141452381Y-115738095D02*
X140452381Y-115738095D01*
X140452381Y-115357142D01*
X140500000Y-115261904D01*
X140547619Y-115214285D01*
X140642857Y-115166666D01*
X140785714Y-115166666D01*
X140880952Y-115214285D01*
X140928571Y-115261904D01*
X140976190Y-115357142D01*
X140976190Y-115738095D01*
X140785714Y-114309523D02*
X141452381Y-114309523D01*
X140404762Y-114547619D02*
X141119048Y-114785714D01*
X141119048Y-114166666D01*
X123452381Y-115738095D02*
X122452381Y-115738095D01*
X122452381Y-115357142D01*
X122500000Y-115261904D01*
X122547619Y-115214285D01*
X122642857Y-115166666D01*
X122785714Y-115166666D01*
X122880952Y-115214285D01*
X122928571Y-115261904D01*
X122976190Y-115357142D01*
X122976190Y-115738095D01*
X122452381Y-114833333D02*
X122452381Y-114214285D01*
X122833333Y-114547619D01*
X122833333Y-114404761D01*
X122880952Y-114309523D01*
X122928571Y-114261904D01*
X123023810Y-114214285D01*
X123261905Y-114214285D01*
X123357143Y-114261904D01*
X123404762Y-114309523D01*
X123452381Y-114404761D01*
X123452381Y-114690476D01*
X123404762Y-114785714D01*
X123357143Y-114833333D01*
X138452381Y-79238095D02*
X137452381Y-79238095D01*
X137452381Y-78857142D01*
X137500000Y-78761904D01*
X137547619Y-78714285D01*
X137642857Y-78666666D01*
X137785714Y-78666666D01*
X137880952Y-78714285D01*
X137928571Y-78761904D01*
X137976190Y-78857142D01*
X137976190Y-79238095D01*
X137547619Y-78285714D02*
X137500000Y-78238095D01*
X137452381Y-78142857D01*
X137452381Y-77904761D01*
X137500000Y-77809523D01*
X137547619Y-77761904D01*
X137642857Y-77714285D01*
X137738095Y-77714285D01*
X137880952Y-77761904D01*
X138452381Y-78333333D01*
X138452381Y-77714285D01*
X121452381Y-79238095D02*
X120452381Y-79238095D01*
X120452381Y-78857142D01*
X120500000Y-78761904D01*
X120547619Y-78714285D01*
X120642857Y-78666666D01*
X120785714Y-78666666D01*
X120880952Y-78714285D01*
X120928571Y-78761904D01*
X120976190Y-78857142D01*
X120976190Y-79238095D01*
X121452381Y-77714285D02*
X121452381Y-78285714D01*
X121452381Y-78000000D02*
X120452381Y-78000000D01*
X120595238Y-78095238D01*
X120690476Y-78190476D01*
X120738095Y-78285714D01*
M02*
