G04 #@! TF.FileFunction,Copper,L1,Top,Signal*
%FSLAX46Y46*%
G04 Gerber Fmt 4.6, Leading zero omitted, Abs format (unit mm)*
G04 Created by KiCad (PCBNEW 4.0.1-stable) date Tuesday, April 26, 2016 'AMt' 05:14:25 AM*
%MOMM*%
G01*
G04 APERTURE LIST*
%ADD10C,0.100000*%
%ADD11C,3.500000*%
%ADD12C,1.000000*%
%ADD13C,0.254000*%
G04 APERTURE END LIST*
D10*
D11*
X137400000Y-115000000D03*
X139000000Y-120000000D03*
X139000000Y-110000000D03*
X126600000Y-115000000D03*
X125000000Y-110000000D03*
X125000000Y-120000000D03*
X134900000Y-78200000D03*
X136500000Y-83200000D03*
X136500000Y-73200000D03*
X124100000Y-78200000D03*
X122500000Y-73200000D03*
X122500000Y-83200000D03*
D12*
X124100000Y-78200000D02*
X125620000Y-81080000D01*
X130090000Y-110700000D02*
X126600000Y-115000000D01*
X125620000Y-81080000D02*
X130090000Y-110700000D01*
X124100000Y-78200000D02*
X124100000Y-78600000D01*
X134900000Y-78200000D02*
X130760000Y-85380000D01*
X130760000Y-85380000D02*
X135010000Y-111480000D01*
X135010000Y-111480000D02*
X137400000Y-115000000D01*
X130760000Y-85380000D02*
X135010000Y-111480000D01*
X134900000Y-78200000D02*
X134900000Y-78600000D01*
D13*
G36*
X141998094Y-70797497D02*
X142420357Y-71079643D01*
X142702503Y-71501906D01*
X142815000Y-72067466D01*
X142815000Y-83716264D01*
X137015632Y-89515632D01*
X136979349Y-89569933D01*
X136932876Y-89615819D01*
X136905823Y-89679973D01*
X136867143Y-89737862D01*
X136854402Y-89801914D01*
X136829026Y-89862092D01*
X136828583Y-89931714D01*
X136815000Y-90000000D01*
X136827741Y-90064055D01*
X136827326Y-90129360D01*
X139327326Y-103129360D01*
X139353560Y-103193852D01*
X139367143Y-103262138D01*
X139403426Y-103316440D01*
X139428034Y-103376934D01*
X139476951Y-103426477D01*
X139515632Y-103484368D01*
X145315000Y-109283736D01*
X145315000Y-120932534D01*
X145202503Y-121498094D01*
X144920357Y-121920357D01*
X144498094Y-122202503D01*
X143932533Y-122315000D01*
X139658966Y-122315000D01*
X140324636Y-122039271D01*
X140514923Y-121694528D01*
X139000000Y-120179605D01*
X137485077Y-121694528D01*
X137675364Y-122039271D01*
X138366266Y-122315000D01*
X125658966Y-122315000D01*
X126324636Y-122039271D01*
X126514923Y-121694528D01*
X125000000Y-120179605D01*
X123485077Y-121694528D01*
X123675364Y-122039271D01*
X124366266Y-122315000D01*
X120067466Y-122315000D01*
X119501906Y-122202503D01*
X119079643Y-121920357D01*
X118797497Y-121498094D01*
X118685000Y-120932533D01*
X118685000Y-119556591D01*
X122609044Y-119556591D01*
X122621359Y-120505323D01*
X122960729Y-121324636D01*
X123305472Y-121514923D01*
X124820395Y-120000000D01*
X125179605Y-120000000D01*
X126694528Y-121514923D01*
X127039271Y-121324636D01*
X127390956Y-120443409D01*
X127379445Y-119556591D01*
X136609044Y-119556591D01*
X136621359Y-120505323D01*
X136960729Y-121324636D01*
X137305472Y-121514923D01*
X138820395Y-120000000D01*
X139179605Y-120000000D01*
X140694528Y-121514923D01*
X141039271Y-121324636D01*
X141390956Y-120443409D01*
X141378641Y-119494677D01*
X141039271Y-118675364D01*
X140694528Y-118485077D01*
X139179605Y-120000000D01*
X138820395Y-120000000D01*
X137305472Y-118485077D01*
X136960729Y-118675364D01*
X136609044Y-119556591D01*
X127379445Y-119556591D01*
X127378641Y-119494677D01*
X127039271Y-118675364D01*
X126694528Y-118485077D01*
X125179605Y-120000000D01*
X124820395Y-120000000D01*
X123305472Y-118485077D01*
X122960729Y-118675364D01*
X122609044Y-119556591D01*
X118685000Y-119556591D01*
X118685000Y-118305472D01*
X123485077Y-118305472D01*
X125000000Y-119820395D01*
X126514923Y-118305472D01*
X137485077Y-118305472D01*
X139000000Y-119820395D01*
X140514923Y-118305472D01*
X140324636Y-117960729D01*
X139443409Y-117609044D01*
X138494677Y-117621359D01*
X137675364Y-117960729D01*
X137485077Y-118305472D01*
X126514923Y-118305472D01*
X126324636Y-117960729D01*
X125443409Y-117609044D01*
X124494677Y-117621359D01*
X123675364Y-117960729D01*
X123485077Y-118305472D01*
X118685000Y-118305472D01*
X118685000Y-111694528D01*
X123485077Y-111694528D01*
X123675364Y-112039271D01*
X124556591Y-112390956D01*
X125505323Y-112378641D01*
X126324636Y-112039271D01*
X126514923Y-111694528D01*
X125000000Y-110179605D01*
X123485077Y-111694528D01*
X118685000Y-111694528D01*
X118685000Y-109556591D01*
X122609044Y-109556591D01*
X122621359Y-110505323D01*
X122960729Y-111324636D01*
X123305472Y-111514923D01*
X124820395Y-110000000D01*
X125179605Y-110000000D01*
X126694528Y-111514923D01*
X127039271Y-111324636D01*
X127390956Y-110443409D01*
X127378641Y-109494677D01*
X127039271Y-108675364D01*
X126694528Y-108485077D01*
X125179605Y-110000000D01*
X124820395Y-110000000D01*
X123305472Y-108485077D01*
X122960729Y-108675364D01*
X122609044Y-109556591D01*
X118685000Y-109556591D01*
X118685000Y-109283736D01*
X119663264Y-108305472D01*
X123485077Y-108305472D01*
X125000000Y-109820395D01*
X126514923Y-108305472D01*
X126324636Y-107960729D01*
X125443409Y-107609044D01*
X124494677Y-107621359D01*
X123675364Y-107960729D01*
X123485077Y-108305472D01*
X119663264Y-108305472D01*
X124484368Y-103484368D01*
X124520651Y-103430066D01*
X124567124Y-103384181D01*
X124594177Y-103320027D01*
X124632857Y-103262138D01*
X124645598Y-103198086D01*
X124670974Y-103137908D01*
X124671417Y-103068287D01*
X124685000Y-103000000D01*
X124672259Y-102935945D01*
X124672674Y-102870639D01*
X122172674Y-89870640D01*
X122146440Y-89806148D01*
X122132857Y-89737862D01*
X122096575Y-89683561D01*
X122071966Y-89623065D01*
X122023048Y-89573521D01*
X121984368Y-89515632D01*
X117363264Y-84894528D01*
X120985077Y-84894528D01*
X121175364Y-85239271D01*
X122056591Y-85590956D01*
X123005323Y-85578641D01*
X123824636Y-85239271D01*
X124014923Y-84894528D01*
X122500000Y-83379605D01*
X120985077Y-84894528D01*
X117363264Y-84894528D01*
X116185000Y-83716264D01*
X116185000Y-82756591D01*
X120109044Y-82756591D01*
X120121359Y-83705323D01*
X120460729Y-84524636D01*
X120805472Y-84714923D01*
X122320395Y-83200000D01*
X120805472Y-81685077D01*
X120460729Y-81875364D01*
X120109044Y-82756591D01*
X116185000Y-82756591D01*
X116185000Y-81505472D01*
X120985077Y-81505472D01*
X122500000Y-83020395D01*
X124014923Y-81505472D01*
X123824636Y-81160729D01*
X122943409Y-80809044D01*
X121994677Y-80821359D01*
X121175364Y-81160729D01*
X120985077Y-81505472D01*
X116185000Y-81505472D01*
X116185000Y-78672325D01*
X121714587Y-78672325D01*
X122076916Y-79549229D01*
X122747242Y-80220726D01*
X123623513Y-80584585D01*
X124075361Y-80584979D01*
X124526419Y-81439615D01*
X124622502Y-82076302D01*
X124539271Y-81875364D01*
X124194528Y-81685077D01*
X122679605Y-83200000D01*
X124194528Y-84714923D01*
X124539271Y-84524636D01*
X124867766Y-83701517D01*
X128892928Y-110373843D01*
X127073608Y-112615412D01*
X126127675Y-112614587D01*
X125250771Y-112976916D01*
X124579274Y-113647242D01*
X124215415Y-114523513D01*
X124214587Y-115472325D01*
X124576916Y-116349229D01*
X125247242Y-117020726D01*
X126123513Y-117384585D01*
X127072325Y-117385413D01*
X127949229Y-117023084D01*
X128620726Y-116352758D01*
X128984585Y-115476487D01*
X128985413Y-114527675D01*
X128803153Y-114086572D01*
X130971265Y-111415260D01*
X130983677Y-111391731D01*
X131003341Y-111373819D01*
X131086573Y-111196686D01*
X131177901Y-111023568D01*
X131180365Y-110997081D01*
X131191676Y-110973008D01*
X131200787Y-110777500D01*
X131218913Y-110582616D01*
X131211054Y-110557205D01*
X131212292Y-110530633D01*
X127394510Y-85232485D01*
X129634627Y-85232485D01*
X129645524Y-85397321D01*
X129639755Y-85562415D01*
X133889755Y-111662415D01*
X133898303Y-111685279D01*
X133898484Y-111709690D01*
X133975557Y-111891921D01*
X134044836Y-112077229D01*
X134061483Y-112095081D01*
X134070992Y-112117565D01*
X135276940Y-113893690D01*
X135015415Y-114523513D01*
X135014587Y-115472325D01*
X135376916Y-116349229D01*
X136047242Y-117020726D01*
X136923513Y-117384585D01*
X137872325Y-117385413D01*
X138749229Y-117023084D01*
X139420726Y-116352758D01*
X139784585Y-115476487D01*
X139785413Y-114527675D01*
X139423084Y-113650771D01*
X138752758Y-112979274D01*
X137876487Y-112615415D01*
X137152392Y-112614783D01*
X136527560Y-111694528D01*
X137485077Y-111694528D01*
X137675364Y-112039271D01*
X138556591Y-112390956D01*
X139505323Y-112378641D01*
X140324636Y-112039271D01*
X140514923Y-111694528D01*
X139000000Y-110179605D01*
X137485077Y-111694528D01*
X136527560Y-111694528D01*
X136089926Y-111049980D01*
X135846750Y-109556591D01*
X136609044Y-109556591D01*
X136621359Y-110505323D01*
X136960729Y-111324636D01*
X137305472Y-111514923D01*
X138820395Y-110000000D01*
X139179605Y-110000000D01*
X140694528Y-111514923D01*
X141039271Y-111324636D01*
X141390956Y-110443409D01*
X141378641Y-109494677D01*
X141039271Y-108675364D01*
X140694528Y-108485077D01*
X139179605Y-110000000D01*
X138820395Y-110000000D01*
X137305472Y-108485077D01*
X136960729Y-108675364D01*
X136609044Y-109556591D01*
X135846750Y-109556591D01*
X135643024Y-108305472D01*
X137485077Y-108305472D01*
X139000000Y-109820395D01*
X140514923Y-108305472D01*
X140324636Y-107960729D01*
X139443409Y-107609044D01*
X138494677Y-107621359D01*
X137675364Y-107960729D01*
X137485077Y-108305472D01*
X135643024Y-108305472D01*
X131945230Y-85596667D01*
X132350084Y-84894528D01*
X134985077Y-84894528D01*
X135175364Y-85239271D01*
X136056591Y-85590956D01*
X137005323Y-85578641D01*
X137824636Y-85239271D01*
X138014923Y-84894528D01*
X136500000Y-83379605D01*
X134985077Y-84894528D01*
X132350084Y-84894528D01*
X133582822Y-82756591D01*
X134109044Y-82756591D01*
X134121359Y-83705323D01*
X134460729Y-84524636D01*
X134805472Y-84714923D01*
X136320395Y-83200000D01*
X136679605Y-83200000D01*
X138194528Y-84714923D01*
X138539271Y-84524636D01*
X138890956Y-83643409D01*
X138878641Y-82694677D01*
X138539271Y-81875364D01*
X138194528Y-81685077D01*
X136679605Y-83200000D01*
X136320395Y-83200000D01*
X134805472Y-81685077D01*
X134460729Y-81875364D01*
X134109044Y-82756591D01*
X133582822Y-82756591D01*
X134304219Y-81505472D01*
X134985077Y-81505472D01*
X136500000Y-83020395D01*
X138014923Y-81505472D01*
X137824636Y-81160729D01*
X136943409Y-80809044D01*
X135994677Y-80821359D01*
X135175364Y-81160729D01*
X134985077Y-81505472D01*
X134304219Y-81505472D01*
X134834998Y-80584944D01*
X135372325Y-80585413D01*
X136249229Y-80223084D01*
X136920726Y-79552758D01*
X137284585Y-78676487D01*
X137285413Y-77727675D01*
X136923084Y-76850771D01*
X136252758Y-76179274D01*
X135376487Y-75815415D01*
X134427675Y-75814587D01*
X133550771Y-76176916D01*
X132879274Y-76847242D01*
X132515415Y-77723513D01*
X132514587Y-78672325D01*
X132849763Y-79483514D01*
X129776743Y-84813052D01*
X129723731Y-84969509D01*
X129655221Y-85119830D01*
X129653200Y-85177670D01*
X129634627Y-85232485D01*
X127394510Y-85232485D01*
X126742292Y-80910633D01*
X126677911Y-80732119D01*
X126623777Y-80550229D01*
X126105406Y-79568052D01*
X126120726Y-79552758D01*
X126484585Y-78676487D01*
X126485413Y-77727675D01*
X126123084Y-76850771D01*
X125452758Y-76179274D01*
X124576487Y-75815415D01*
X123627675Y-75814587D01*
X122750771Y-76176916D01*
X122079274Y-76847242D01*
X121715415Y-77723513D01*
X121714587Y-78672325D01*
X116185000Y-78672325D01*
X116185000Y-74894528D01*
X120985077Y-74894528D01*
X121175364Y-75239271D01*
X122056591Y-75590956D01*
X123005323Y-75578641D01*
X123824636Y-75239271D01*
X124014923Y-74894528D01*
X134985077Y-74894528D01*
X135175364Y-75239271D01*
X136056591Y-75590956D01*
X137005323Y-75578641D01*
X137824636Y-75239271D01*
X138014923Y-74894528D01*
X136500000Y-73379605D01*
X134985077Y-74894528D01*
X124014923Y-74894528D01*
X122500000Y-73379605D01*
X120985077Y-74894528D01*
X116185000Y-74894528D01*
X116185000Y-72756591D01*
X120109044Y-72756591D01*
X120121359Y-73705323D01*
X120460729Y-74524636D01*
X120805472Y-74714923D01*
X122320395Y-73200000D01*
X122679605Y-73200000D01*
X124194528Y-74714923D01*
X124539271Y-74524636D01*
X124890956Y-73643409D01*
X124879445Y-72756591D01*
X134109044Y-72756591D01*
X134121359Y-73705323D01*
X134460729Y-74524636D01*
X134805472Y-74714923D01*
X136320395Y-73200000D01*
X136679605Y-73200000D01*
X138194528Y-74714923D01*
X138539271Y-74524636D01*
X138890956Y-73643409D01*
X138878641Y-72694677D01*
X138539271Y-71875364D01*
X138194528Y-71685077D01*
X136679605Y-73200000D01*
X136320395Y-73200000D01*
X134805472Y-71685077D01*
X134460729Y-71875364D01*
X134109044Y-72756591D01*
X124879445Y-72756591D01*
X124878641Y-72694677D01*
X124539271Y-71875364D01*
X124194528Y-71685077D01*
X122679605Y-73200000D01*
X122320395Y-73200000D01*
X120805472Y-71685077D01*
X120460729Y-71875364D01*
X120109044Y-72756591D01*
X116185000Y-72756591D01*
X116185000Y-72067467D01*
X116296787Y-71505472D01*
X120985077Y-71505472D01*
X122500000Y-73020395D01*
X124014923Y-71505472D01*
X134985077Y-71505472D01*
X136500000Y-73020395D01*
X138014923Y-71505472D01*
X137824636Y-71160729D01*
X136943409Y-70809044D01*
X135994677Y-70821359D01*
X135175364Y-71160729D01*
X134985077Y-71505472D01*
X124014923Y-71505472D01*
X123824636Y-71160729D01*
X122943409Y-70809044D01*
X121994677Y-70821359D01*
X121175364Y-71160729D01*
X120985077Y-71505472D01*
X116296787Y-71505472D01*
X116297497Y-71501906D01*
X116579643Y-71079643D01*
X117001906Y-70797497D01*
X117567466Y-70685000D01*
X141432533Y-70685000D01*
X141998094Y-70797497D01*
X141998094Y-70797497D01*
G37*
X141998094Y-70797497D02*
X142420357Y-71079643D01*
X142702503Y-71501906D01*
X142815000Y-72067466D01*
X142815000Y-83716264D01*
X137015632Y-89515632D01*
X136979349Y-89569933D01*
X136932876Y-89615819D01*
X136905823Y-89679973D01*
X136867143Y-89737862D01*
X136854402Y-89801914D01*
X136829026Y-89862092D01*
X136828583Y-89931714D01*
X136815000Y-90000000D01*
X136827741Y-90064055D01*
X136827326Y-90129360D01*
X139327326Y-103129360D01*
X139353560Y-103193852D01*
X139367143Y-103262138D01*
X139403426Y-103316440D01*
X139428034Y-103376934D01*
X139476951Y-103426477D01*
X139515632Y-103484368D01*
X145315000Y-109283736D01*
X145315000Y-120932534D01*
X145202503Y-121498094D01*
X144920357Y-121920357D01*
X144498094Y-122202503D01*
X143932533Y-122315000D01*
X139658966Y-122315000D01*
X140324636Y-122039271D01*
X140514923Y-121694528D01*
X139000000Y-120179605D01*
X137485077Y-121694528D01*
X137675364Y-122039271D01*
X138366266Y-122315000D01*
X125658966Y-122315000D01*
X126324636Y-122039271D01*
X126514923Y-121694528D01*
X125000000Y-120179605D01*
X123485077Y-121694528D01*
X123675364Y-122039271D01*
X124366266Y-122315000D01*
X120067466Y-122315000D01*
X119501906Y-122202503D01*
X119079643Y-121920357D01*
X118797497Y-121498094D01*
X118685000Y-120932533D01*
X118685000Y-119556591D01*
X122609044Y-119556591D01*
X122621359Y-120505323D01*
X122960729Y-121324636D01*
X123305472Y-121514923D01*
X124820395Y-120000000D01*
X125179605Y-120000000D01*
X126694528Y-121514923D01*
X127039271Y-121324636D01*
X127390956Y-120443409D01*
X127379445Y-119556591D01*
X136609044Y-119556591D01*
X136621359Y-120505323D01*
X136960729Y-121324636D01*
X137305472Y-121514923D01*
X138820395Y-120000000D01*
X139179605Y-120000000D01*
X140694528Y-121514923D01*
X141039271Y-121324636D01*
X141390956Y-120443409D01*
X141378641Y-119494677D01*
X141039271Y-118675364D01*
X140694528Y-118485077D01*
X139179605Y-120000000D01*
X138820395Y-120000000D01*
X137305472Y-118485077D01*
X136960729Y-118675364D01*
X136609044Y-119556591D01*
X127379445Y-119556591D01*
X127378641Y-119494677D01*
X127039271Y-118675364D01*
X126694528Y-118485077D01*
X125179605Y-120000000D01*
X124820395Y-120000000D01*
X123305472Y-118485077D01*
X122960729Y-118675364D01*
X122609044Y-119556591D01*
X118685000Y-119556591D01*
X118685000Y-118305472D01*
X123485077Y-118305472D01*
X125000000Y-119820395D01*
X126514923Y-118305472D01*
X137485077Y-118305472D01*
X139000000Y-119820395D01*
X140514923Y-118305472D01*
X140324636Y-117960729D01*
X139443409Y-117609044D01*
X138494677Y-117621359D01*
X137675364Y-117960729D01*
X137485077Y-118305472D01*
X126514923Y-118305472D01*
X126324636Y-117960729D01*
X125443409Y-117609044D01*
X124494677Y-117621359D01*
X123675364Y-117960729D01*
X123485077Y-118305472D01*
X118685000Y-118305472D01*
X118685000Y-111694528D01*
X123485077Y-111694528D01*
X123675364Y-112039271D01*
X124556591Y-112390956D01*
X125505323Y-112378641D01*
X126324636Y-112039271D01*
X126514923Y-111694528D01*
X125000000Y-110179605D01*
X123485077Y-111694528D01*
X118685000Y-111694528D01*
X118685000Y-109556591D01*
X122609044Y-109556591D01*
X122621359Y-110505323D01*
X122960729Y-111324636D01*
X123305472Y-111514923D01*
X124820395Y-110000000D01*
X125179605Y-110000000D01*
X126694528Y-111514923D01*
X127039271Y-111324636D01*
X127390956Y-110443409D01*
X127378641Y-109494677D01*
X127039271Y-108675364D01*
X126694528Y-108485077D01*
X125179605Y-110000000D01*
X124820395Y-110000000D01*
X123305472Y-108485077D01*
X122960729Y-108675364D01*
X122609044Y-109556591D01*
X118685000Y-109556591D01*
X118685000Y-109283736D01*
X119663264Y-108305472D01*
X123485077Y-108305472D01*
X125000000Y-109820395D01*
X126514923Y-108305472D01*
X126324636Y-107960729D01*
X125443409Y-107609044D01*
X124494677Y-107621359D01*
X123675364Y-107960729D01*
X123485077Y-108305472D01*
X119663264Y-108305472D01*
X124484368Y-103484368D01*
X124520651Y-103430066D01*
X124567124Y-103384181D01*
X124594177Y-103320027D01*
X124632857Y-103262138D01*
X124645598Y-103198086D01*
X124670974Y-103137908D01*
X124671417Y-103068287D01*
X124685000Y-103000000D01*
X124672259Y-102935945D01*
X124672674Y-102870639D01*
X122172674Y-89870640D01*
X122146440Y-89806148D01*
X122132857Y-89737862D01*
X122096575Y-89683561D01*
X122071966Y-89623065D01*
X122023048Y-89573521D01*
X121984368Y-89515632D01*
X117363264Y-84894528D01*
X120985077Y-84894528D01*
X121175364Y-85239271D01*
X122056591Y-85590956D01*
X123005323Y-85578641D01*
X123824636Y-85239271D01*
X124014923Y-84894528D01*
X122500000Y-83379605D01*
X120985077Y-84894528D01*
X117363264Y-84894528D01*
X116185000Y-83716264D01*
X116185000Y-82756591D01*
X120109044Y-82756591D01*
X120121359Y-83705323D01*
X120460729Y-84524636D01*
X120805472Y-84714923D01*
X122320395Y-83200000D01*
X120805472Y-81685077D01*
X120460729Y-81875364D01*
X120109044Y-82756591D01*
X116185000Y-82756591D01*
X116185000Y-81505472D01*
X120985077Y-81505472D01*
X122500000Y-83020395D01*
X124014923Y-81505472D01*
X123824636Y-81160729D01*
X122943409Y-80809044D01*
X121994677Y-80821359D01*
X121175364Y-81160729D01*
X120985077Y-81505472D01*
X116185000Y-81505472D01*
X116185000Y-78672325D01*
X121714587Y-78672325D01*
X122076916Y-79549229D01*
X122747242Y-80220726D01*
X123623513Y-80584585D01*
X124075361Y-80584979D01*
X124526419Y-81439615D01*
X124622502Y-82076302D01*
X124539271Y-81875364D01*
X124194528Y-81685077D01*
X122679605Y-83200000D01*
X124194528Y-84714923D01*
X124539271Y-84524636D01*
X124867766Y-83701517D01*
X128892928Y-110373843D01*
X127073608Y-112615412D01*
X126127675Y-112614587D01*
X125250771Y-112976916D01*
X124579274Y-113647242D01*
X124215415Y-114523513D01*
X124214587Y-115472325D01*
X124576916Y-116349229D01*
X125247242Y-117020726D01*
X126123513Y-117384585D01*
X127072325Y-117385413D01*
X127949229Y-117023084D01*
X128620726Y-116352758D01*
X128984585Y-115476487D01*
X128985413Y-114527675D01*
X128803153Y-114086572D01*
X130971265Y-111415260D01*
X130983677Y-111391731D01*
X131003341Y-111373819D01*
X131086573Y-111196686D01*
X131177901Y-111023568D01*
X131180365Y-110997081D01*
X131191676Y-110973008D01*
X131200787Y-110777500D01*
X131218913Y-110582616D01*
X131211054Y-110557205D01*
X131212292Y-110530633D01*
X127394510Y-85232485D01*
X129634627Y-85232485D01*
X129645524Y-85397321D01*
X129639755Y-85562415D01*
X133889755Y-111662415D01*
X133898303Y-111685279D01*
X133898484Y-111709690D01*
X133975557Y-111891921D01*
X134044836Y-112077229D01*
X134061483Y-112095081D01*
X134070992Y-112117565D01*
X135276940Y-113893690D01*
X135015415Y-114523513D01*
X135014587Y-115472325D01*
X135376916Y-116349229D01*
X136047242Y-117020726D01*
X136923513Y-117384585D01*
X137872325Y-117385413D01*
X138749229Y-117023084D01*
X139420726Y-116352758D01*
X139784585Y-115476487D01*
X139785413Y-114527675D01*
X139423084Y-113650771D01*
X138752758Y-112979274D01*
X137876487Y-112615415D01*
X137152392Y-112614783D01*
X136527560Y-111694528D01*
X137485077Y-111694528D01*
X137675364Y-112039271D01*
X138556591Y-112390956D01*
X139505323Y-112378641D01*
X140324636Y-112039271D01*
X140514923Y-111694528D01*
X139000000Y-110179605D01*
X137485077Y-111694528D01*
X136527560Y-111694528D01*
X136089926Y-111049980D01*
X135846750Y-109556591D01*
X136609044Y-109556591D01*
X136621359Y-110505323D01*
X136960729Y-111324636D01*
X137305472Y-111514923D01*
X138820395Y-110000000D01*
X139179605Y-110000000D01*
X140694528Y-111514923D01*
X141039271Y-111324636D01*
X141390956Y-110443409D01*
X141378641Y-109494677D01*
X141039271Y-108675364D01*
X140694528Y-108485077D01*
X139179605Y-110000000D01*
X138820395Y-110000000D01*
X137305472Y-108485077D01*
X136960729Y-108675364D01*
X136609044Y-109556591D01*
X135846750Y-109556591D01*
X135643024Y-108305472D01*
X137485077Y-108305472D01*
X139000000Y-109820395D01*
X140514923Y-108305472D01*
X140324636Y-107960729D01*
X139443409Y-107609044D01*
X138494677Y-107621359D01*
X137675364Y-107960729D01*
X137485077Y-108305472D01*
X135643024Y-108305472D01*
X131945230Y-85596667D01*
X132350084Y-84894528D01*
X134985077Y-84894528D01*
X135175364Y-85239271D01*
X136056591Y-85590956D01*
X137005323Y-85578641D01*
X137824636Y-85239271D01*
X138014923Y-84894528D01*
X136500000Y-83379605D01*
X134985077Y-84894528D01*
X132350084Y-84894528D01*
X133582822Y-82756591D01*
X134109044Y-82756591D01*
X134121359Y-83705323D01*
X134460729Y-84524636D01*
X134805472Y-84714923D01*
X136320395Y-83200000D01*
X136679605Y-83200000D01*
X138194528Y-84714923D01*
X138539271Y-84524636D01*
X138890956Y-83643409D01*
X138878641Y-82694677D01*
X138539271Y-81875364D01*
X138194528Y-81685077D01*
X136679605Y-83200000D01*
X136320395Y-83200000D01*
X134805472Y-81685077D01*
X134460729Y-81875364D01*
X134109044Y-82756591D01*
X133582822Y-82756591D01*
X134304219Y-81505472D01*
X134985077Y-81505472D01*
X136500000Y-83020395D01*
X138014923Y-81505472D01*
X137824636Y-81160729D01*
X136943409Y-80809044D01*
X135994677Y-80821359D01*
X135175364Y-81160729D01*
X134985077Y-81505472D01*
X134304219Y-81505472D01*
X134834998Y-80584944D01*
X135372325Y-80585413D01*
X136249229Y-80223084D01*
X136920726Y-79552758D01*
X137284585Y-78676487D01*
X137285413Y-77727675D01*
X136923084Y-76850771D01*
X136252758Y-76179274D01*
X135376487Y-75815415D01*
X134427675Y-75814587D01*
X133550771Y-76176916D01*
X132879274Y-76847242D01*
X132515415Y-77723513D01*
X132514587Y-78672325D01*
X132849763Y-79483514D01*
X129776743Y-84813052D01*
X129723731Y-84969509D01*
X129655221Y-85119830D01*
X129653200Y-85177670D01*
X129634627Y-85232485D01*
X127394510Y-85232485D01*
X126742292Y-80910633D01*
X126677911Y-80732119D01*
X126623777Y-80550229D01*
X126105406Y-79568052D01*
X126120726Y-79552758D01*
X126484585Y-78676487D01*
X126485413Y-77727675D01*
X126123084Y-76850771D01*
X125452758Y-76179274D01*
X124576487Y-75815415D01*
X123627675Y-75814587D01*
X122750771Y-76176916D01*
X122079274Y-76847242D01*
X121715415Y-77723513D01*
X121714587Y-78672325D01*
X116185000Y-78672325D01*
X116185000Y-74894528D01*
X120985077Y-74894528D01*
X121175364Y-75239271D01*
X122056591Y-75590956D01*
X123005323Y-75578641D01*
X123824636Y-75239271D01*
X124014923Y-74894528D01*
X134985077Y-74894528D01*
X135175364Y-75239271D01*
X136056591Y-75590956D01*
X137005323Y-75578641D01*
X137824636Y-75239271D01*
X138014923Y-74894528D01*
X136500000Y-73379605D01*
X134985077Y-74894528D01*
X124014923Y-74894528D01*
X122500000Y-73379605D01*
X120985077Y-74894528D01*
X116185000Y-74894528D01*
X116185000Y-72756591D01*
X120109044Y-72756591D01*
X120121359Y-73705323D01*
X120460729Y-74524636D01*
X120805472Y-74714923D01*
X122320395Y-73200000D01*
X122679605Y-73200000D01*
X124194528Y-74714923D01*
X124539271Y-74524636D01*
X124890956Y-73643409D01*
X124879445Y-72756591D01*
X134109044Y-72756591D01*
X134121359Y-73705323D01*
X134460729Y-74524636D01*
X134805472Y-74714923D01*
X136320395Y-73200000D01*
X136679605Y-73200000D01*
X138194528Y-74714923D01*
X138539271Y-74524636D01*
X138890956Y-73643409D01*
X138878641Y-72694677D01*
X138539271Y-71875364D01*
X138194528Y-71685077D01*
X136679605Y-73200000D01*
X136320395Y-73200000D01*
X134805472Y-71685077D01*
X134460729Y-71875364D01*
X134109044Y-72756591D01*
X124879445Y-72756591D01*
X124878641Y-72694677D01*
X124539271Y-71875364D01*
X124194528Y-71685077D01*
X122679605Y-73200000D01*
X122320395Y-73200000D01*
X120805472Y-71685077D01*
X120460729Y-71875364D01*
X120109044Y-72756591D01*
X116185000Y-72756591D01*
X116185000Y-72067467D01*
X116296787Y-71505472D01*
X120985077Y-71505472D01*
X122500000Y-73020395D01*
X124014923Y-71505472D01*
X134985077Y-71505472D01*
X136500000Y-73020395D01*
X138014923Y-71505472D01*
X137824636Y-71160729D01*
X136943409Y-70809044D01*
X135994677Y-70821359D01*
X135175364Y-71160729D01*
X134985077Y-71505472D01*
X124014923Y-71505472D01*
X123824636Y-71160729D01*
X122943409Y-70809044D01*
X121994677Y-70821359D01*
X121175364Y-71160729D01*
X120985077Y-71505472D01*
X116296787Y-71505472D01*
X116297497Y-71501906D01*
X116579643Y-71079643D01*
X117001906Y-70797497D01*
X117567466Y-70685000D01*
X141432533Y-70685000D01*
X141998094Y-70797497D01*
M02*
